<svg xmlns="http://www.w3.org/2000/svg" version="1.1" xmlns:xlink="http://www.w3.org/1999/xlink" xmlns:svgjs="http://svgjs.dev/svgjs" width="2160" height="1080" preserveAspectRatio="none" viewBox="0 0 2160 1080"><g mask="url(&quot;#SvgjsMask1160&quot;)" fill="none"><rect width="2160" height="1080" x="0" y="0" fill="rgba(65, 156, 161, 1)"></rect><path d="M0,674.044C170.677,673.144,333.632,828.258,492.967,767.071C653.695,705.349,767.988,534.981,801.767,366.155C833.908,205.518,696.326,65.214,665.591,-95.698C636.869,-246.07,727.954,-428.209,627.907,-544.085C527.88,-659.938,335.249,-598.763,189.881,-646.675C37.446,-696.916,-85.687,-856.992,-244.152,-831.507C-403.02,-805.957,-492.81,-639.918,-599.745,-519.682C-708.101,-397.848,-833.945,-283.904,-872.149,-125.396C-912.068,40.229,-880.462,214.896,-814.668,372.047C-747.474,532.543,-659.465,711.811,-496.32,772.289C-334.917,832.121,-172.134,674.952,0,674.044" fill="#3b8e93"></path><path d="M2160 1885.838C2307.839 1896.5439999999999 2413.736 1746.185 2525.723 1649.077 2623.189 1564.561 2708.395 1472.025 2768.7219999999998 1357.9940000000001 2832.063 1238.267 2889.41 1111.466 2881.684 976.237 2873.6040000000003 834.812 2821.218 694.381 2724.874 590.534 2630.008 488.28 2489.806 451.80600000000004 2356.64 410.30600000000004 2221.354 368.14599999999996 2077.672 297.933 1944.909 347.46900000000005 1813.327 396.56500000000005 1766.6399999999999 553.465 1678.9479999999999 663.1659999999999 1595.437 767.636 1484.864 850.1 1441.8780000000002 976.75 1393.754 1118.537 1344.453 1289.146 1423.2730000000001 1416.452 1502.5549999999998 1544.505 1699.784 1517.536 1826.804 1598.464 1953.057 1678.903 2010.691 1875.0259999999998 2160 1885.838" fill="#47aab0"></path></g><defs><mask id="SvgjsMask1160"><rect width="2160" height="1080" fill="#ffffff"></rect></mask></defs></svg>